<svg height="512pt" viewBox="0 -37 512.002 512" width="512pt" xmlns="http://www.w3.org/2000/svg"><path d="m396.5 131.644531h64.96875c4.144531 0 7.5-3.359375 7.5-7.5 0-4.144531-3.359375-7.5-7.5-7.5h-64.96875c-4.144531 0-7.5 3.359375-7.5 7.5s3.355469 7.5 7.5 7.5zm0 0"/><path d="m396.5 174.734375h64.96875c4.144531 0 7.5-3.359375 7.5-7.5 0-4.144531-3.359375-7.5-7.5-7.5h-64.96875c-4.144531 0-7.5 3.355469-7.5 7.5 0 4.140625 3.355469 7.5 7.5 7.5zm0 0"/><path d="m389 331.386719c0 12.785156 10.410156 23.1875 23.203125 23.1875h33.5625c12.796875 0 23.203125-10.402344 23.203125-23.1875v-32.933594c0-4.140625-3.355469-7.5-7.5-7.5-4.140625 0-7.5 3.359375-7.5 7.5v32.933594c0 4.515625-3.679688 8.1875-8.203125 8.1875h-33.5625c-4.519531 0-8.203125-3.671875-8.203125-8.1875v-105.207031c0-4.515626 3.679688-8.1875 8.203125-8.1875h33.5625c4.523437 0 8.203125 3.671874 8.203125 8.1875v37.613281c0 4.140625 3.359375 7.5 7.5 7.5 4.144531 0 7.5-3.359375 7.5-7.5v-37.613281c0-12.785157-10.40625-23.1875-23.203125-23.1875h-33.5625c-12.792969 0-23.203125 10.402343-23.203125 23.1875zm0 0"/><path d="m401.402344 88.554688h55.164062c6.839844 0 12.402344-5.566407 12.402344-12.40625v-22.464844c0-6.84375-5.5625-12.410156-12.402344-12.410156h-55.164062c-6.839844 0-12.402344 5.566406-12.402344 12.410156v22.464844c0 6.839843 5.5625 12.40625 12.402344 12.40625zm2.597656-32.28125h49.96875v17.28125h-49.96875zm0 0"/><path d="m122.472656 196.019531c-10.320312-3.929687-20.992187-7.996093-30.457031-3.003906-6.730469 3.546875-11.175781 10.664063-13.996094 22.390625-5.089843 21.179688 6.851563 64.976562 33.144531 79.773438 5.160157 2.898437 11.589844 5.144531 19.148438 5.144531 11.515625 0 25.644531-5.21875 41.835938-21.28125 9.921874-9.851563 17.867187-21.28125 23.667968-34.03125.90625.058593 1.816406.097656 2.738282.097656 7.851562 0 15.203124-2.171875 21.5-5.941406 3.179687 5.617187 5.800781 11.492187 7.800781 17.550781 1.625 4.933594 2.546875 10.273438 3.441406 15.4375 1.878906 10.890625 3.824219 22.152344 12.945313 27.746094 3.417968 2.09375 7.359374 3.140625 12.015624 3.140625 4.175782 0 8.929688-.84375 14.378907-2.527344 20.78125-6.40625 52.328125-38.992187 51.65625-69.164063-.332031-14.953124-8.40625-34.773437-44.984375-44.289062-13.597656-3.523438-27.472656-4.527344-41.328125-3.007812-3.230469-6.332032-8.007813-11.742188-13.84375-15.71875 3.742187-5.261719 7.957031-10.125 12.601562-14.511719 3.78125-3.5625 8.230469-6.664063 12.53125-9.664063 9.0625-6.3125 18.433594-12.84375 19.640625-23.472656.859375-7.5625-2.511718-15.246094-10.605468-24.179688-14.578126-16.128906-57.414063-30.949218-84.460938-17.597656-13.414062 6.621094-27.96875 22.324219-21.117188 59.527344 2.539063 13.761719 7.5 26.777344 14.777344 38.769531-5.597656 7.140625-8.949218 16.125-8.949218 25.878907 0 .03125.003906.058593.003906.089843-6.480469-.128906-12.867188-.871093-19.066406-2.25-5.0625-1.117187-10.125-3.042969-15.019532-4.90625zm118.082032 7.066407c0-1.476563-.078126-2.9375-.230469-4.378907 11.144531-.917969 22.289062.046875 33.21875 2.875 22.082031 5.746094 33.4375 15.871094 33.753906 30.101563.492187 22.132812-25.253906 49.621094-41.082031 54.5-6.710938 2.070312-11.730469 2.402344-14.128906.929687-3.335938-2.042969-4.636719-9.554687-6.007813-17.507812-.941406-5.4375-2.003906-11.597657-3.976563-17.582031-2.632812-7.976563-6.191406-15.667969-10.578124-22.949219 5.648437-7.15625 9.03125-16.179688 9.03125-25.988281zm-15 0c0 14.902343-12.113282 27.023437-27 27.023437-14.886719 0-26.996094-12.125-26.996094-27.023437 0-14.898438 12.109375-27.019532 26.996094-27.019532 14.886718 0 27 12.121094 27 27.019532zm-60.074219-67.367188c-4.136719-22.464844.238281-37.054688 13.003906-43.355469 19.832031-9.792969 55.597656 1.925781 66.699219 14.207031 4.71875 5.210938 7.140625 9.621094 6.824218 12.421876-.441406 3.894531-6.691406 8.25-13.3125 12.863281-4.527343 3.15625-9.660156 6.730469-14.25 11.058593-6.101562 5.761719-11.554687 12.234376-16.285156 19.269532-3.085937-.722656-6.300781-1.121094-9.601562-1.121094-7.902344 0-15.296875 2.199219-21.613282 6.007812-5.578124-9.773437-9.425781-20.289062-11.464843-31.351562zm-6.109375 82.464844c3.945312 10.210937 11.757812 18.503906 21.636718 23.070312-4.929687 10.109375-11.441406 19.214844-19.425781 27.140625-16.191406 16.066407-30.679687 20.675781-43.058593 13.710938-19.285157-10.851563-29.796876-47.0625-25.917969-63.195313 1.640625-6.828125 3.917969-11.3125 6.410156-12.625 3.460937-1.828125 10.582031.882813 18.117187 3.753906 5.152344 1.960938 10.992188 4.183594 17.121094 5.53125 8.152344 1.816407 16.578125 2.675782 25.117188 2.613282zm0 0"/><path d="m206.265625 182.992188c-2.46875-.960938-5.042969-1.445313-7.652344-1.445313-5.316406 0-10.375 2-14.253906 5.648437-4.140625 3.914063-6.515625 9.417969-6.515625 15.097657 0 1.449219.160156 2.9375.488281 4.476562 1.734375 7.867188 7.90625 14.046875 15.746094 15.769531 1.421875.339844 2.90625.5 4.535156.5 5.296875 0 10.332031-1.992187 14.164063-5.59375 4.175781-3.90625 6.574218-9.425781 6.574218-15.152343 0-2.230469-.34375-4.414063-1.023437-6.492188 0-.003906 0-.011719-.003906-.015625-1.90625-5.816406-6.273438-10.46875-12.058594-12.792968zm-3.75 23.511718c-1.050781.988282-2.441406 1.535156-3.902344 1.535156-.464843 0-.8125-.03125-1.09375-.101562-.066406-.015625-.128906-.03125-.195312-.042969-2.125-.457031-3.867188-2.203125-4.328125-4.292969-.101563-.464843-.148438-.90625-.148438-1.308593 0-1.597657.644532-3.085938 1.804688-4.183594 1.074218-1.007813 2.480468-1.5625 3.960937-1.5625.742188 0 1.484375.140625 2.132813.394531 1.5625.628906 2.804687 1.941406 3.324218 3.515625.183594.5625.277344 1.199219.277344 1.835938.003906 1.609375-.644531 3.097656-1.832031 4.210937zm0 0"/><path d="m333.003906 127.386719c3.5625-2.113281 4.738282-6.714844 2.625-10.277344-28.089844-47.320313-80.558594-76.714844-136.929687-76.714844-88.554688 0-160.601563 72.09375-160.601563 160.707031 0 88.613282 72.046875 160.707032 160.601563 160.707032 88.554687 0 160.597656-72.09375 160.597656-160.707032 0-15.875-2.429687-31.734374-7.226563-47.132812-1.230468-3.957031-5.4375-6.164062-9.390624-4.933594-3.957032 1.230469-6.164063 5.4375-4.933594 9.390625 4.347656 13.957031 6.550781 28.3125 6.550781 42.675781 0 80.34375-65.316406 145.707032-145.597656 145.707032-80.285157 0-145.601563-65.367188-145.601563-145.707032 0-80.34375 65.316406-145.707031 145.597656-145.707031 51.109376 0 98.632813 26.582031 124.03125 69.371094 2.113282 3.5625 6.714844 4.738281 10.277344 2.621094zm0 0"/><path d="m484.910156 0h-242.132812c-4.144532 0-7.5 3.359375-7.5 7.5 0 4.144531 3.355468 7.5 7.5 7.5h242.132812c6.667969 0 12.089844 5.417969 12.089844 12.074219v344.566406c0 6.671875-5.421875 12.097656-12.089844 12.097656h-457.851562c-6.648438 0-12.058594-5.425781-12.058594-12.097656v-344.566406c0-6.65625 5.410156-12.070313 12.058594-12.070313h181.105468c4.144532 0 7.5-3.359375 7.5-7.5 0-4.144531-3.355468-7.49999975-7.5-7.49999975h-181.105468c-14.917969-.00390625-27.058594 12.14062475-27.058594 27.07031275v344.566406c0 14.945313 12.140625 27.101563 27.058594 27.101563h9.539062v21.746093c0 9.65625 7.851563 17.515625 17.503906 17.515625h76.820313c9.652344 0 17.507813-7.859375 17.507813-17.515625v-21.746093h215.117187v21.746093c0 9.65625 7.851563 17.515625 17.503906 17.515625h76.820313c9.652344 0 17.507812-7.859375 17.507812-17.515625v-21.746093h9.535156c14.9375 0 27.089844-12.15625 27.089844-27.101563v-344.566406c-.003906-14.929688-12.15625-27.074219-27.09375-27.074219zm-351.484375 420.488281c0 1.359375-1.144531 2.511719-2.503906 2.511719h-76.820313c-1.359374 0-2.503906-1.148438-2.503906-2.511719v-21.746093h81.828125zm326.949219 0c0 1.359375-1.144531 2.511719-2.503906 2.511719h-76.820313c-1.359375 0-2.503906-1.148438-2.503906-2.511719v-21.746093h81.828125zm0 0"/></svg>