<svg height="512pt" viewBox="-40 0 512 512" width="512pt" xmlns="http://www.w3.org/2000/svg"><path d="m208.976562 27.214844c-15.667968 0-28.410156 12.78125-28.410156 28.488281 0 15.726563 12.742188 28.519531 28.410156 28.519531 15.679688 0 28.4375-12.792968 28.4375-28.519531 0-15.707031-12.757812-28.488281-28.4375-28.488281zm0 42.039062c-7.414062 0-13.445312-6.078125-13.445312-13.550781 0-7.457031 6.03125-13.519531 13.445312-13.519531 7.425782 0 13.46875 6.0625 13.46875 13.519531 0 7.472656-6.042968 13.550781-13.46875 13.550781zm0 0"/><path d="m165.738281 34.527344h-6.351562c-4.132813 0-7.484375 3.351562-7.484375 7.484375 0 4.132812 3.351562 7.484375 7.484375 7.484375h6.351562c4.132813 0 7.484375-3.351563 7.484375-7.484375 0-4.132813-3.351562-7.484375-7.484375-7.484375zm0 0"/><path d="m165.738281 63.273438h-6.351562c-4.132813 0-7.484375 3.351562-7.484375 7.484374 0 4.132813 3.351562 7.484376 7.484375 7.484376h6.351562c4.132813 0 7.484375-3.351563 7.484375-7.484376 0-4.132812-3.351562-7.484374-7.484375-7.484374zm0 0"/><path d="m260.117188 34.527344h-6.324219c-4.132813 0-7.484375 3.351562-7.484375 7.484375 0 4.132812 3.351562 7.484375 7.484375 7.484375h6.324219c4.132812 0 7.484374-3.351563 7.484374-7.484375 0-4.132813-3.351562-7.484375-7.484374-7.484375zm0 0"/><path d="m260.117188 63.273438h-6.324219c-4.132813 0-7.484375 3.351562-7.484375 7.484374 0 4.132813 3.351562 7.484376 7.484375 7.484376h6.324219c4.132812 0 7.484374-3.351563 7.484374-7.484376 0-4.132812-3.351562-7.484374-7.484374-7.484374zm0 0"/><path d="m410.550781 0h-388.128906c-12.363281 0-22.421875 10.085938-22.421875 22.480469v467.039062c0 12.394531 10.058594 22.480469 22.421875 22.480469h388.128906c12.363281 0 22.421875-10.085938 22.421875-22.480469v-467.039062c0-12.394531-10.058594-22.480469-22.421875-22.480469zm-289.035156 497.03125h-99.09375c-4.109375 0-7.453125-3.371094-7.453125-7.511719v-24.71875h106.546875zm296.492187-7.511719c0 4.140625-3.347656 7.511719-7.457031 7.511719h-274.066406v-32.230469h281.523437zm0-391.691406h-182.035156c-4.132812 0-7.484375 3.351563-7.484375 7.484375 0 4.136719 3.351563 7.484375 7.484375 7.484375h182.035156v337.035156h-403.039062v-337.035156h183.359375c4.132813 0 7.484375-3.347656 7.484375-7.484375 0-4.132812-3.347656-7.484375-7.484375-7.484375h-183.359375v-75.347656c0-4.140625 3.34375-7.511719 7.453125-7.511719h388.128906c4.109375 0 7.457031 3.371094 7.457031 7.511719zm0 0"/><path d="m391.121094 29h-87.769532c-6.757812 0-12.253906 5.507812-12.253906 12.273438v28.886718c0 6.769532 5.496094 12.277344 12.253906 12.277344h87.769532c6.761718 0 12.257812-5.507812 12.257812-12.277344v-28.886718c0-6.765626-5.496094-12.273438-12.257812-12.273438zm-2.710938 38.46875h-82.347656v-23.5h82.347656zm0 0"/><path d="m94.421875 207.433594c-2.015625 3.609375-.722656 8.167968 2.886719 10.183594 3.609375 2.015624 8.167968.722656 10.183594-2.886719 22.085937-39.566407 63.851562-64.144531 108.992187-64.144531 68.859375 0 124.878906 56.261718 124.878906 125.414062 0 69.136719-56.019531 125.386719-124.878906 125.386719-68.871094 0-124.902344-56.25-124.902344-125.386719 0-10.308594 1.246094-20.523438 3.703125-30.359375 1-4.011719-1.4375-8.074219-5.449218-9.078125-4.007813-1-8.070313 1.4375-9.074219 5.449219-2.75 11.023437-4.148438 22.457031-4.148438 33.988281 0 77.390625 62.746094 140.355469 139.875 140.355469 77.109375 0 139.84375-62.964844 139.84375-140.355469 0-77.40625-62.734375-140.378906-139.84375-140.378906-50.5625-.003906-97.332031 27.515625-122.066406 71.8125zm0 0"/><path d="m304.902344 240.8125c2.007812-.714844 3.613281-2.25 4.421875-4.222656.804687-1.976563.726562-4.199219-.207031-6.113282-8.363282-17.128906-21.273438-31.605468-37.335938-41.859374-16.511719-10.542969-35.628906-16.117188-55.292969-16.117188-56.867187 0-103.132812 46.429688-103.132812 103.5s46.265625 103.5 103.132812 103.5c19.660157 0 38.777344-5.574219 55.292969-16.128906 16.058594-10.257813 28.96875-24.726563 37.335938-41.84375.9375-1.917969 1.011718-4.140625.207031-6.113282-.804688-1.972656-2.414063-3.511718-4.421875-4.226562-3.410156-1.210938-5.699219-4.460938-5.699219-8.085938v-54.230468c-.003906-3.609375 2.289063-6.847656 5.699219-8.058594zm-12.457032 80.15625c-15.824218 27.035156-44.347656 43.5625-75.957031 43.5625-48.617187 0-88.167969-39.714844-88.167969-88.53125s39.550782-88.53125 88.167969-88.53125c31.625 0 60.144531 16.523438 75.957031 43.558594-5.101562 4.386718-8.210937 10.863281-8.210937 17.84375v54.230468c0 6.988282 3.109375 13.472657 8.210937 17.867188zm0 0"/><path d="m103.78125 35.125h-39.367188c-10.710937 0-19.429687 8.734375-19.429687 19.472656 0 10.742188 8.71875 19.476563 19.429687 19.476563h39.367188c10.710938 0 19.429688-8.734375 19.429688-19.476563 0-10.738281-8.714844-19.472656-19.429688-19.472656zm0 23.980469h-39.367188c-2.460937 0-4.460937-2.019531-4.460937-4.507813 0-2.484375 2-4.507812 4.460937-4.507812h39.367188c2.460938 0 4.460938 2.023437 4.460938 4.507812 0 2.488282-2 4.507813-4.460938 4.507813zm0 0"/></svg>