<svg height="512pt" viewBox="-87 0 511 512" width="512pt" xmlns="http://www.w3.org/2000/svg"><path d="m274.734375 60.832031h-12.984375c-7.992188 0-14.496094 6.503907-14.496094 14.5v47.792969c0 7.992188 6.503906 14.496094 14.496094 14.496094h12.984375c7.996094 0 14.5-6.503906 14.5-14.496094v-47.792969c0-7.996093-6.507813-14.5-14.5-14.5zm-.496094 61.796875h-11.992187v-46.800781h11.992187zm0 0"/><path d="m261.75 220.199219c-7.992188 0-14.496094 6.503906-14.496094 14.5v47.789062c0 7.996094 6.503906 14.5 14.496094 14.5h12.984375c7.996094 0 14.5-6.503906 14.5-14.5v-47.789062c0-7.996094-6.503906-14.5-14.5-14.5zm12.488281 61.792969h-11.992187v-46.800782h11.992187zm0 0"/><path d="m309.175781 0h-281.195312c-15.152344 0-27.480469 12.328125-27.480469 27.480469v382.300781.066406 44.140625c0 13.535157 9.835938 24.808594 22.734375 27.0625v15.65625c0 8.433594 6.859375 15.292969 15.292969 15.292969h59.753906c8.414062 0 15.261719-6.859375 15.261719-15.292969v-15.238281h112.761719v15.238281c0 8.433594 6.847656 15.292969 15.261718 15.292969h59.785156c8.414063 0 15.261719-6.859375 15.261719-15.292969v-16.265625c11.566407-3.253906 20.070313-13.875 20.070313-26.453125v-188.136719c0-4.140624-3.355469-7.5-7.496094-7.5s-7.5 3.359376-7.5 7.5v85.832032c-46.066406 55.324218-105.855469 66-219.179688 39.5-32.296874-7.550782-69.351562 2.203125-87.015624 8.023437v-207.382812h306.195312v39.414062c0 4.140625 3.355469 7.5 7.496094 7.5s7.5-3.359375 7.5-7.5v-203.757812c0-15.152344-12.339844-27.480469-27.507813-27.480469zm-210.625 496.707031c0 .15625-.152343.296875-.269531.296875h-59.753906c-.140625 0-.300782-.15625-.300782-.296875v-15.238281h60.320313v15.238281zm202.800781.296875h-59.78125c-.101562 0-.269531-.144531-.269531-.296875v-15.238281h60.320313v15.238281c0 .15625-.152344.296875-.269532.296875zm-202.257812-91.21875c40.605469 9.496094 74.175781 14.160156 102.816406 14.15625 13.132813 0 25.230469-.980468 36.492188-2.925781 32.964844-5.695313 59.84375-19.523437 83.285156-43.0625v80.035156c0 6.882813-5.613281 12.484375-12.511719 12.484375h-281.195312c-6.882813 0-12.484375-5.601562-12.484375-12.484375v-38.914062c13.175781-4.679688 51.875-16.707031 83.597656-9.289063zm-83.597656-228.957031v-149.347656c0-6.882813 5.601562-12.484375 12.484375-12.484375h281.195312c6.898438 0 12.511719 5.601562 12.511719 12.484375v149.347656zm0 0"/></svg>