<svg height="512pt" viewBox="0 -37 512.001 512" width="512pt" xmlns="http://www.w3.org/2000/svg"><path d="m278.890625 283.789062h-53.859375c-6.964844 0-12.628906 5.664063-12.628906 12.628907v20.296875c0 6.960937 5.664062 12.628906 12.628906 12.628906h53.859375c6.964844 0 12.628906-5.667969 12.628906-12.628906v-20.296875c0-6.964844-5.664062-12.628907-12.628906-12.628907zm-2.367187 30.558594h-49.125v-15.5625h49.125zm0 0"/><path d="m212.402344 237.824219v20.296875c0 6.960937 5.664062 12.628906 12.628906 12.628906h53.859375c6.964844 0 12.628906-5.667969 12.628906-12.628906v-20.296875c0-6.964844-5.664062-12.628907-12.628906-12.628907h-53.859375c-6.964844 0-12.628906 5.664063-12.628906 12.628907zm14.996094 2.367187h49.125v15.5625h-49.125zm0 0"/><path d="m178.386719 246.609375v89.265625c0 13.265625 10.789062 24.054688 24.050781 24.054688h99.046875c13.261719 0 24.050781-10.789063 24.050781-24.054688v-89.265625c0-40.570313-33.003906-73.574219-73.574218-73.574219-40.570313 0-73.574219 33.003906-73.574219 73.574219zm132.152343 0v89.265625c0 4.996094-4.0625 9.058594-9.054687 9.058594h-99.046875c-4.992188 0-9.054688-4.0625-9.054688-9.058594v-89.265625c0-32.300781 26.277344-58.578125 58.578126-58.578125 32.300781 0 58.578124 26.277344 58.578124 58.578125zm0 0"/><path d="m482.730469 130.65625h-1.445313c1.234375-2.917969 1.914063-6.121094 1.914063-9.484375v-5.386719c0-10.878906-7.128907-20.117187-16.949219-23.292968v-4.601563c0-31.832031-25.910156-57.726563-57.757812-57.726563h-93.558594v-7.585937c0-12.449219-10.128906-22.578125-22.578125-22.578125h-72.738281c-12.449219 0-22.578126 10.128906-22.578126 22.578125v7.585937h-93.558593c-31.832031 0-57.730469 25.894532-57.730469 57.726563v4.597656c-9.839844 3.175781-16.980469 12.417969-16.980469 23.296875v5.386719c0 3.363281.683594 6.566406 1.917969 9.484375h-1.449219c-16.121093 0-29.238281 13.117188-29.238281 29.238281 0 16.140625 13.117188 29.269531 29.238281 29.269531h16.511719v169.136719c0 21.707031 15.804688 39.785157 36.511719 43.355469v11.4375c0 14.21875 11.566406 25.785156 25.78125 25.785156h50.316406c14.214844 0 25.78125-11.566406 25.78125-25.785156v-10.785156h143.71875v10.785156c0 14.21875 11.566406 25.785156 25.78125 25.785156h50.3125c14.21875 0 25.78125-11.566406 25.78125-25.785156v-11.4375c20.707031-3.570312 36.511719-21.648438 36.511719-43.355469v-53.238281c0-4.140625-3.355469-7.496094-7.496094-7.496094s-7.5 3.355469-7.5 7.496094v53.238281c0 15.996094-13.015625 29.011719-29.011719 29.011719h-332.476562c-16 0-29.015625-13.015625-29.015625-29.011719v-212.679687h176.617187c4.140625 0 7.496094-3.355469 7.496094-7.496094s-3.355469-7.5-7.496094-7.5h-184.113281c-5.230469 0-9.484375-4.238281-9.484375-9.453125v-5.386719c0-5.226562 4.253906-9.480468 9.484375-9.480468h405.5c5.214844 0 9.453125 4.253906 9.453125 9.480468v5.386719c0 5.214844-4.238281 9.453125-9.453125 9.453125h-186.265625c-4.140625 0-7.5 3.359375-7.5 7.5s3.359375 7.496094 7.5 7.496094h178.769531v126.785156c0 4.140625 3.355469 7.5 7.496094 7.5s7.5-3.359375 7.5-7.5v-83.242188h16.480469c16.140625 0 29.269531-13.128906 29.269531-29.269531 0-16.121093-13.128906-29.238281-29.269531-29.238281zm-67.988281 271.652344v10.785156c0 5.847656-4.941407 10.789062-10.785157 10.789062h-50.316406c-5.949219 0-10.785156-4.839843-10.785156-10.789062v-10.785156zm-245.597657 0v10.785156c0 5.949219-4.835937 10.789062-10.785156 10.789062h-50.316406c-5.945313 0-10.785157-4.839843-10.785157-10.789062v-10.785156zm-139.90625-228.140625c-7.851562 0-14.242187-6.402344-14.242187-14.273438 0-7.855469 6.390625-14.242187 14.242187-14.242187h16.511719v28.515625zm182.796875-151.585938c0-4.183593 3.402344-7.585937 7.582032-7.585937h72.738281c4.179687 0 7.582031 3.402344 7.582031 7.585937v7.582031h-87.902344zm-108.554687 22.578125h305.007812c23.578125 0 42.761719 19.167969 42.761719 42.730469v3.417969h-390.503906v-3.417969c0-23.5625 19.171875-42.730469 42.734375-42.730469zm379.25 129.007813h-16.484375v-28.515625h16.484375c7.871093 0 14.273437 6.390625 14.273437 14.246094 0 7.867187-6.402344 14.269531-14.273437 14.269531zm0 0"/></svg>