<?xml version="1.0"?>
<svg xmlns="http://www.w3.org/2000/svg" id="Outline" viewBox="0 0 512 512" width="512" height="512"><path d="M432,192c0-97.047-78.953-176-176-176S80,94.953,80,192c0,83.058,57.836,152.854,135.348,171.252L201.223,448H160a40.045,40.045,0,0,0-40,40,8,8,0,0,0,8,8H384a8,8,0,0,0,8-8,40.045,40.045,0,0,0-40-40H310.777l-14.125-84.748C374.164,344.854,432,275.058,432,192ZM352,464a24.042,24.042,0,0,1,22.629,16H137.371A24.042,24.042,0,0,1,160,464ZM217.444,448l13.629-81.773a176.114,176.114,0,0,0,49.854,0L294.556,448ZM256,352c-88.224,0-160-71.776-160-160S167.776,32,256,32s160,71.776,160,160S344.224,352,256,352Z"/><path d="M264,416H248a8,8,0,0,0,0,16h16a8,8,0,0,0,0-16Z"/><path d="M264,384H248a8,8,0,0,0,0,16h16a8,8,0,0,0,0-16Z"/><path d="M377.661,247.288l-50.538-50.619a40.312,40.312,0,0,0-4.827-4.13,40.354,40.354,0,0,0,4.917-4.178l28.119-28.079a39.731,39.731,0,0,0,0-56.253l-33.74-33.69a8,8,0,0,0-11.305,0l-50.613,50.533a40.2,40.2,0,0,0-3.256,3.668,40.423,40.423,0,0,0-4.058-4.753L224.282,91.668a39.731,39.731,0,0,0-56.253,0l-33.69,33.74a8,8,0,0,0,0,11.3l50.538,50.619a40.312,40.312,0,0,0,4.827,4.13,40.354,40.354,0,0,0-4.917,4.178l-28.119,28.079a39.731,39.731,0,0,0,0,56.253l33.74,33.69a8,8,0,0,0,11.3,0l50.613-50.533a40.2,40.2,0,0,0,3.256-3.668,40.423,40.423,0,0,0,4.058,4.753l28.079,28.119a39.731,39.731,0,0,0,56.253,0l33.69-33.74A8,8,0,0,0,377.661,247.288ZM270.973,132.2l44.966-44.9,28.088,28.047a23.728,23.728,0,0,1,0,33.607l-28.118,28.079a23.924,23.924,0,0,1-5.018,3.819,56.066,56.066,0,0,0-43.7-43.736A23.707,23.707,0,0,1,270.973,132.2Zm-119.668-1.14,28.047-28.088a23.728,23.728,0,0,1,33.607,0l28.079,28.118a23.768,23.768,0,0,1,4.317,5.927,56.055,56.055,0,0,0-44.047,42.891,23.788,23.788,0,0,1-5.107-3.882ZM241.027,251.8l-44.966,44.9-28.088-28.047a23.728,23.728,0,0,1,0-33.607l28.118-28.079a23.905,23.905,0,0,1,5.017-3.818,56.07,56.07,0,0,0,43.7,43.735A23.707,23.707,0,0,1,241.027,251.8ZM256.26,232h-.594A40.01,40.01,0,0,1,216,192.26c-.008-.467,0-.926.018-1.43A40.006,40.006,0,0,1,255.74,152h.594A40.009,40.009,0,0,1,296,191.676c0,.021,0,.043,0,.064.008.467,0,.926-.018,1.43A40.006,40.006,0,0,1,256.26,232Zm76.388,49.027a23.728,23.728,0,0,1-33.607,0l-28.079-28.118a23.768,23.768,0,0,1-4.317-5.927,56.055,56.055,0,0,0,44.047-42.891,23.788,23.788,0,0,1,5.107,3.882l44.9,44.966Z"/></svg>
