<svg height="488pt" viewBox="0 -4 488.00083 488" width="488pt" xmlns="http://www.w3.org/2000/svg"><path d="m481.015625 7.144531c-4.460937-4.601562-10.605469-7.1835935-17.015625-7.144531-13.253906 0-24 10.746094-24 24v96h-8v-16c0-13.253906-10.746094-24-24-24h-24v-56c0-4.417969-3.582031-8-8-8h-24c-4.417969 0-8 3.582031-8 8v16h-48v-16c0-4.417969-3.582031-8-8-8h-24c-4.417969 0-8 3.582031-8 8v56h-120c13.253906 0 24-10.746094 24-24s-10.746094-24-24-24h-64c-13.253906 0-24 10.746094-24 24s10.746094 24 24 24h-24v-56c.054688-6.332031-2.46875-12.414062-6.984375-16.855469-4.460937-4.601562-10.605469-7.1835935-17.015625-7.144531-13.253906 0-24 10.746094-24 24v448c0 4.417969 3.582031 8 8 8h32c4.417969 0 8-3.582031 8-8v-40h208v40c0 4.417969 3.582031 8 8 8h24c4.417969 0 8-3.582031 8-8v-32h48v32c0 4.417969 3.582031 8 8 8h24c4.417969 0 8-3.582031 8-8v-40h56v40c0 4.417969 3.582031 8 8 8h32c4.417969 0 8-3.582031 8-8v-448c.054688-6.332031-2.46875-12.414062-6.984375-16.855469zm-417.015625 48.855469c0-4.417969 3.582031-8 8-8h64c4.417969 0 8 3.582031 8 8s-3.582031 8-8 8h-64c-4.417969 0-8-3.582031-8-8zm368 296v-16c0-13.253906-10.746094-24-24-24h-24v-112h56v152zm40-216v48h-88v-48zm-88 192h24c4.417969 0 8 3.582031 8 8v16h-32zm72-128h16v152h-16zm0-176c0-4.417969 3.582031-8 8-8 2.160156-.003906 4.222656.886719 5.703125 2.457031 1.488281 1.460938 2.316406 3.460938 2.296875 5.542969v96h-16zm-48 72c4.417969 0 8 3.582031 8 8v16h-32v-24zm-392 256v-152h16v152zm240-216v48h-240v-48zm-192 160c0-4.417969 3.582031-8 8-8h64c4.417969 0 8 3.582031 8 8s-3.582031 8-8 8h-64c-4.417969 0-8-3.582031-8-8zm72-24h-64c-9.484375-.042969-18.097656 5.53125-21.945312 14.199219-3.847657 8.667969-2.207032 18.792969 4.183593 25.800781h-6.238281v-112h208v112h-102.238281c6.390625-7.007812 8.03125-17.132812 4.183593-25.800781-3.847656-8.667969-12.460937-14.242188-21.945312-14.199219zm-88 56h208v24h-208zm208-232v24h-208v-24zm-232-80c2.160156-.003906 4.222656.886719 5.703125 2.457031 1.488281 1.460938 2.316406 3.460938 2.296875 5.542969v96h-16v-96c0-4.417969 3.582031-8 8-8zm8 448h-16v-32h16zm-16-48v-48h240v48zm352 48h-8v-32c0-4.417969-3.582031-8-8-8h-64c-4.417969 0-8 3.582031-8 8v32h-8v-432h8v16c0 4.417969 3.582031 8 8 8h64c4.417969 0 8-3.582031 8-8v-16h8zm16-96h88v48h-88zm72 96v-32h16v32zm0 0"/><path d="m352 64h-64c-4.417969 0-8 3.582031-8 8v48c0 4.417969 3.582031 8 8 8h64c4.417969 0 8-3.582031 8-8v-48c0-4.417969-3.582031-8-8-8zm-8 48h-48v-32h48zm0 0"/><path d="m352 280h-64c-4.417969 0-8 3.582031-8 8v48c0 4.417969 3.582031 8 8 8h64c4.417969 0 8-3.582031 8-8v-48c0-4.417969-3.582031-8-8-8zm-8 48h-48v-32h48zm0 0"/><path d="m352 352h-64c-4.417969 0-8 3.582031-8 8v48c0 4.417969 3.582031 8 8 8h64c4.417969 0 8-3.582031 8-8v-48c0-4.417969-3.582031-8-8-8zm-8 48h-48v-32h48zm0 0"/><path d="m352 136h-64c-4.417969 0-8 3.582031-8 8v48c0 4.417969 3.582031 8 8 8h64c4.417969 0 8-3.582031 8-8v-48c0-4.417969-3.582031-8-8-8zm-8 48h-48v-32h48zm0 0"/><path d="m352 208h-64c-4.417969 0-8 3.582031-8 8v48c0 4.417969 3.582031 8 8 8h64c4.417969 0 8-3.582031 8-8v-48c0-4.417969-3.582031-8-8-8zm-8 48h-48v-32h48zm0 0"/></svg>