<?xml version="1.0" encoding="iso-8859-1"?>
<!-- Generator: Adobe Illustrator 19.0.0, SVG Export Plug-In . SVG Version: 6.00 Build 0)  -->
<svg version="1.1" id="Capa_1" xmlns="http://www.w3.org/2000/svg" xmlns:xlink="http://www.w3.org/1999/xlink" x="0px" y="0px"
	 viewBox="0 0 512 512" style="enable-background:new 0 0 512 512;" xml:space="preserve">
<g>
	<g>
		<g>
			<circle cx="177.5" cy="100" r="20"/>
			<circle cx="177.5" cy="180" r="20"/>
			<circle cx="177.5" cy="20" r="20"/>
			<circle cx="333.5" cy="20" r="20"/>
			<circle cx="491.5" cy="20" r="20"/>
			<circle cx="491.5" cy="100" r="20"/>
			<circle cx="491.5" cy="256" r="20"/>
			<circle cx="255.5" cy="20" r="20"/>
			<circle cx="491.5" cy="412" r="20"/>
			<circle cx="491.5" cy="334" r="20"/>
			<circle cx="491.5" cy="492" r="20"/>
			<circle cx="412.5" cy="492" r="20"/>
			<path d="M287.5,372c-22.457,0-42.464,10.643-55.281,27.137L201.34,338.23l89.992-177.172c5.002-9.848,1.074-21.887-8.774-26.889
				c-9.847-5.003-21.887-1.075-26.889,8.774l-76.74,151.082l-76.59-151.069c-4.996-9.852-17.031-13.79-26.882-8.794
				c-9.852,4.995-13.789,17.03-8.794,26.882l89.822,177.169l-30.847,60.731C112.813,382.561,92.873,372,70.5,372
				c-38.598,0-70,31.404-70,70.006C0.5,480.601,31.902,512,70.5,512c29.563,0,54.886-18.43,65.13-44.406l43.265-85.177l44.99,88.74
				c0.759,1.649,1.575,3.265,2.455,4.843l0.022,0.044c0.3,0.593,0.635,1.155,0.984,1.704C239.571,498.239,261.954,512,287.5,512
				c38.598,0,70-31.399,70-70.018C357.5,403.394,326.098,372,287.5,372z M98.97,451.443l-3.302,6.5
				c-0.18,0.354-0.323,0.716-0.479,1.075C89.771,466.853,80.727,472,70.5,472c-16.542,0-30-13.455-30-29.994
				C40.5,425.46,53.958,412,70.5,412s30,13.45,30,30.006C100.5,445.303,99.958,448.473,98.97,451.443z M287.5,472
				c-10.961,0-20.563-5.91-25.798-14.708l-1.858-3.665c-1.509-3.576-2.344-7.503-2.344-11.622c0-16.545,13.458-30.006,30-30.006
				s30,13.45,30,30.006C317.5,458.545,304.042,472,287.5,472z"/>
			<circle cx="491.5" cy="178" r="20"/>
			<circle cx="412.5" cy="20" r="20"/>
		</g>
	</g>
</g>
<g>
</g>
<g>
</g>
<g>
</g>
<g>
</g>
<g>
</g>
<g>
</g>
<g>
</g>
<g>
</g>
<g>
</g>
<g>
</g>
<g>
</g>
<g>
</g>
<g>
</g>
<g>
</g>
<g>
</g>
</svg>
