<?xml version="1.0" encoding="iso-8859-1"?>
<!-- Generator: Adobe Illustrator 19.0.0, SVG Export Plug-In . SVG Version: 6.00 Build 0)  -->
<svg version="1.1" id="Capa_1" xmlns="http://www.w3.org/2000/svg" xmlns:xlink="http://www.w3.org/1999/xlink" x="0px" y="0px"
	 viewBox="0 0 512.002 512.002" style="enable-background:new 0 0 512.002 512.002;" xml:space="preserve">
<g>
	<g>
		<path d="M509.805,2.223c-2.93-2.931-7.68-2.931-10.609,0l-27.704,27.704c-4.786-3.125-10.353-5.154-16.346-5.727L290.487,8.45
			c-10.824-1.037-21.441,2.78-29.129,10.468L92.421,187.856c-2.93,2.93-2.93,7.679,0,10.609c2.93,2.93,7.68,2.93,10.609,0
			L271.967,29.528c4.511-4.51,10.739-6.748,17.091-6.142l164.658,15.749c2.391,0.229,4.658,0.863,6.752,1.814l-22.176,22.175
			c-4.984-3.063-10.728-4.705-16.726-4.705c-8.558,0-16.604,3.333-22.656,9.384c-12.492,12.492-12.493,32.82,0,45.313
			c6.052,6.052,14.098,9.384,22.656,9.384c8.558,0,16.604-3.333,22.656-9.384c10.666-10.666,12.217-27.039,4.671-39.375
			l22.183-22.183c0.951,2.094,1.586,4.362,1.814,6.752l15.75,164.659c0.607,6.351-1.631,12.579-6.143,17.089
			c0,0-250.571,250.571-250.857,250.857c-8.226,8.226-21.908,8.216-30.124,0c0,0-180.008-180.008-180.408-180.408
			c-8.23-8.23-8.214-21.911-0.001-30.125l57.511-57.511c2.93-2.93,2.93-7.679,0-10.609c-2.93-2.93-7.68-2.93-10.609,0
			c0,0-57.49,57.49-57.511,57.511c-14.004,14.004-13.994,37.349,0,51.343c0.002,0.001,180.382,180.381,180.411,180.41
			c13.783,13.783,37.26,14.083,51.343,0L493.109,250.67c7.689-7.688,11.504-18.305,10.469-29.129l-15.75-164.658
			c-0.573-5.994-2.603-11.561-5.727-16.346l27.704-27.704C512.734,9.902,512.734,5.152,509.805,2.223z M433.614,102.508
			c-6.571,6.571-17.529,6.565-24.094,0c-6.643-6.643-6.643-17.452,0-24.094c4.559-4.559,11.458-6.143,17.552-4.067l-10.809,10.81
			c-2.93,2.93-2.93,7.68,0,10.609c2.897,2.896,7.714,2.897,10.61,0l10.8-10.8C439.692,90.919,438.352,97.77,433.614,102.508z"/>
	</g>
</g>
<g>
	<g>
		<path d="M447.416,197.544c0,0-132.836-132.836-132.932-132.932c-13.996-13.996-37.363-13.98-51.343,0
			c0,0-204.97,204.97-205.164,205.164c-6.925,6.925-10.384,16.3-10.383,25.674c0.001,9.375,3.464,18.75,10.383,25.669
			c0,0,132.841,132.841,132.932,132.932c13.996,13.996,37.36,13.984,51.343,0c0,0,205.084-205.085,205.164-205.164
			C461.416,234.887,461.405,211.533,447.416,197.544z M436.806,238.278c0,0-204.869,204.87-205.164,205.164
			c-8.229,8.229-21.91,8.215-30.125,0c0,0-132.823-132.823-132.932-132.932c-8.222-8.224-8.214-21.91,0.001-30.125
			c0,0,204.881-204.881,205.164-205.164c8.228-8.228,21.904-8.219,30.124,0c0,0,132.702,132.702,132.932,132.932
			C444.987,216.333,444.961,230.122,436.806,238.278z"/>
	</g>
</g>
<g>
	<g>
		<path d="M291.892,295.269c-17.502-17.502-43.665-15.026-60.99,2.299l-0.354,0.354c-16.97,16.97-19.623,42.957-2.299,60.283
			c17.501,17.501,43.842,14.849,60.989-2.299l0.354-0.354C306.564,338.58,309.216,312.593,291.892,295.269z M273.506,340.171
			l-0.354,0.354c-9.545,9.546-22.628,12.727-30.936,4.419c-7.955-7.955-5.657-21.568,4.419-31.644l0.354-0.354
			c9.546-9.546,22.629-12.728,30.937-4.419C285.882,316.482,283.406,330.272,273.506,340.171z"/>
	</g>
</g>
<g>
	<g>
		<path d="M358.01,235.871c-2.476-2.476-5.835-3.713-9.192-2.83l-191.986,29.7c-2.122,0.354-4.42,1.237-6.188,3.005
			c-3.889,3.889-3.889,9.9,0.001,13.79c2.474,2.475,5.831,3.712,9.367,3.005l191.986-29.699c2.122-0.354,4.42-1.237,6.188-3.005
			C362.075,245.948,361.898,239.76,358.01,235.871z"/>
	</g>
</g>
<g>
	<g>
		<path d="M280.402,157.202c-17.502-17.502-43.667-15.026-60.99,2.298l-0.354,0.354c-16.97,16.971-19.622,42.958-2.298,60.283
			c17.678,17.678,43.841,14.85,60.989-2.299l0.354-0.354C295.074,200.514,297.903,174.703,280.402,157.202z M262.015,202.104
			l-0.354,0.354c-9.547,9.547-22.627,12.728-30.936,4.419c-7.955-7.956-5.656-21.568,4.42-31.643l0.354-0.354
			c9.545-9.545,22.627-12.728,30.936-4.419C274.391,178.416,271.915,192.204,262.015,202.104z"/>
	</g>
</g>
<g>
</g>
<g>
</g>
<g>
</g>
<g>
</g>
<g>
</g>
<g>
</g>
<g>
</g>
<g>
</g>
<g>
</g>
<g>
</g>
<g>
</g>
<g>
</g>
<g>
</g>
<g>
</g>
<g>
</g>
</svg>
