<?xml version="1.0" encoding="iso-8859-1"?>
<!-- Generator: Adobe Illustrator 19.0.0, SVG Export Plug-In . SVG Version: 6.00 Build 0)  -->
<svg version="1.1" id="Capa_1" xmlns="http://www.w3.org/2000/svg" xmlns:xlink="http://www.w3.org/1999/xlink" x="0px" y="0px"
	 viewBox="0 0 511.999 511.999" style="enable-background:new 0 0 511.999 511.999;" xml:space="preserve">
<path style="fill:#FFB125;" d="M8.203,322.775l37.691,5.917c0.543,0.085,0.957,0.499,1.042,1.042l5.612,35.747
	c0.085,0.543,0.499,0.957,1.042,1.042l35.747,5.612c0.543,0.085,0.957,0.499,1.042,1.042l6.031,38.417
	c0.085,0.543,0.499,0.957,1.042,1.042l38.417,6.031c0.543,0.085,0.957,0.499,1.042,1.042l6.013,38.298
	c0.085,0.543,0.499,0.957,1.042,1.042l38.298,6.013c0.543,0.085,0.957,0.499,1.042,1.042l5.917,37.691
	c0.166,1.057,1.463,1.423,2.251,0.635L504.43,191.474c0.788-0.788,0.423-2.085-0.635-2.251l-37.691-5.917
	c-0.543-0.085-0.957-0.499-1.042-1.042l-6.013-38.298c-0.085-0.543-0.499-0.957-1.042-1.042l-38.298-6.013
	c-0.543-0.085-0.957-0.499-1.042-1.042l-6.031-38.417c-0.085-0.543-0.499-0.957-1.042-1.042l-38.417-6.031
	c-0.543-0.085-0.957-0.499-1.042-1.042l-5.612-35.747c-0.085-0.543-0.499-0.957-1.042-1.042l-35.747-5.612
	c-0.543-0.085-0.957-0.499-1.042-1.042l-5.917-37.691c-0.166-1.057-1.463-1.423-2.251-0.635L7.568,320.524
	C6.78,321.312,7.146,322.609,8.203,322.775z"/>
<path style="fill:#FF901D;" d="M419.711,136.914c-0.537-0.084-0.958-0.505-1.042-1.042l-6.031-38.417
	c-0.084-0.537-0.505-0.958-1.042-1.042l-38.418-6.031c-0.537-0.084-0.958-0.505-1.042-1.042l-5.612-35.747
	c-0.084-0.537-0.505-0.958-1.042-1.042l-35.747-5.612c-0.537-0.084-0.958-0.505-1.042-1.042l-5.917-37.691
	c-0.166-1.057-1.463-1.423-2.251-0.635L290.01,38.086c0.788-0.788,2.085-0.423,2.251,0.635l5.918,37.691
	c0.084,0.537,0.505,0.958,1.042,1.042l35.747,5.612c0.537,0.084,0.958,0.505,1.042,1.042l5.612,35.747
	c0.084,0.537,0.505,0.958,1.042,1.042l38.417,6.031c0.537,0.084,0.958,0.505,1.042,1.042l6.031,38.417
	c0.084,0.537,0.505,0.958,1.042,1.042l38.298,6.013c0.543,0.085,0.957,0.499,1.042,1.042l5.724,34.239
	c0.512,3.063-0.487,6.184-2.683,8.38l-248.49,248.49c0.106,0.152,0.19,0.321,0.221,0.515l5.917,37.691
	c0.166,1.057,1.463,1.423,2.251,0.635l282.441-282.441l30.515-30.515c0.788-0.788,0.422-2.085-0.635-2.251l-37.691-5.917
	c-0.106-0.017-0.202-0.055-0.297-0.096c-0.076-0.036-0.149-0.077-0.217-0.124c-0.273-0.189-0.473-0.473-0.528-0.822l-6.013-38.298
	c-0.084-0.537-0.505-0.958-1.042-1.042L419.711,136.914z"/>
<path style="fill:#61AFF6;" d="M7.568,320.524c-0.788,0.788-0.423,2.085,0.635,2.251l37.691,5.917
	c0.543,0.085,0.957,0.499,1.042,1.042l5.612,35.747c0.085,0.543,0.499,0.957,1.042,1.042l35.747,5.612
	c0.543,0.085,0.957,0.499,1.042,1.042l6.031,38.417c0.085,0.543,0.499,0.957,1.042,1.042l38.417,6.031
	c0.543,0.085,0.957,0.499,1.042,1.042l6.013,38.298c0.085,0.543,0.499,0.957,1.042,1.042l38.298,6.013
	c0.543,0.085,0.957,0.499,1.042,1.042l5.917,37.691c0.166,1.057,1.463,1.423,2.251,0.635l62.063-62.063L69.631,258.46L7.568,320.524
	z"/>
<path style="fill:#55A2F0;" d="M183.088,465.591L183.088,465.591c0.048,0.069,0.091,0.139,0.125,0.218
	c0.044,0.093,0.079,0.191,0.096,0.298l5.917,37.691c0.041,0.264,0.154,0.485,0.311,0.656c0.157,0.171,0.359,0.291,0.581,0.353
	c0.111,0.031,0.227,0.048,0.344,0.05c0.235,0.003,0.476-0.055,0.699-0.182c0.111-0.063,0.218-0.144,0.316-0.242l62.063-62.063
	l-23.615-23.615L183.088,465.591z"/>
<path d="M395.596,228.105c11.276-11.277,15.134-24.929,1.781-38.281l-21.959-21.959c-13.353-13.353-27.004-9.495-38.281,1.781
	c-11.424,11.425-15.133,24.927-1.78,38.28l21.96,21.96C370.669,243.238,384.171,239.529,395.596,228.105z M346.633,179.142
	c5.786-5.787,12.018-6.677,18.101-0.594l21.959,21.959c6.083,6.083,5.193,12.316-0.594,18.101c-5.787,5.787-11.87,6.53-17.954,0.446
	l-21.959-21.959C340.103,191.012,340.846,184.928,346.633,179.142z"/>
<path d="M286.987,118.605c-3.414-3.413-8.903-2.373-11.87,0.594c-1.78,1.78-2.82,4.302-1.78,7.122l54.602,163.507
	c0.296,1.187,0.89,2.077,1.632,2.82c2.67,2.671,7.863,3.115,11.275-0.297c2.078-2.078,3.115-5.194,2.226-7.864l-54.157-163.064
	C288.47,120.385,287.877,119.495,286.987,118.605z"/>
<path d="M221.109,184.78c-11.425,11.425-15.136,24.927-1.781,38.281l21.959,21.959c13.353,13.354,26.856,9.645,38.281-1.78
	c11.276-11.276,15.134-24.927,1.78-38.281L259.389,183C246.035,169.646,232.385,173.504,221.109,184.78z M270.072,233.742
	c-5.787,5.788-11.869,6.529-17.953,0.445l-21.959-21.959c-6.083-6.082-5.342-12.166,0.444-17.953
	c5.787-5.787,12.019-6.677,18.101-0.594l21.959,21.959C276.748,221.724,275.858,227.957,270.072,233.742z"/>
<path d="M193.506,215.226c-2.788-2.787-7.309-2.787-10.097,0l-52.503,52.503c-2.788,2.789-2.788,7.309,0,10.097
	c1.394,1.393,3.221,2.091,5.048,2.091c1.827,0,3.654-0.697,5.048-2.091l52.503-52.503
	C196.294,222.535,196.294,218.015,193.506,215.226z"/>
<path d="M172.632,316.593c1.827,0,3.654-0.697,5.048-2.091L230.183,262c2.788-2.789,2.788-7.309,0-10.097
	c-2.788-2.787-7.309-2.787-10.097,0l-52.503,52.503c-2.788,2.789-2.788,7.309,0,10.097
	C168.977,315.896,170.804,316.593,172.632,316.593z"/>
<path d="M245.985,389.947c1.827,0,3.654-0.697,5.048-2.091l52.504-52.503c2.788-2.789,2.788-7.309,0-10.097
	c-2.788-2.786-7.308-2.788-10.097,0l-52.503,52.503c-2.788,2.789-2.788,7.309,0,10.097
	C242.331,389.25,244.158,389.947,245.985,389.947z"/>
<path d="M209.308,353.27c1.827,0,3.654-0.697,5.048-2.091l52.504-52.503c2.788-2.789,2.788-7.309,0-10.097
	c-2.788-2.786-7.308-2.788-10.097,0l-52.503,52.503c-2.788,2.789-2.788,7.309,0,10.097
	C205.654,352.573,207.481,353.27,209.308,353.27z"/>
<path d="M511.58,187.855c-0.983-3.014-3.541-5.191-6.675-5.682l-33.454-5.252l-5.347-34.063c-0.568-3.609-3.375-6.416-6.988-6.985
	l-34.059-5.346l-5.366-34.172c-0.562-3.615-3.37-6.426-6.989-6.996l-34.179-5.366l-4.947-31.513
	c-0.569-3.615-3.38-6.423-6.987-6.984L335.08,40.55l-5.251-33.451c-0.492-3.137-2.669-5.695-5.683-6.677
	c-3.057-0.997-6.379-0.192-8.671,2.1l-48.12,48.119c-2.788,2.789-2.788,7.309,0,10.097c2.789,2.787,7.309,2.787,10.097,0
	l40.054-40.055l4.131,26.311c0.563,3.615,3.37,6.427,6.989,6.997l31.509,4.946l4.947,31.513c0.568,3.609,3.374,6.415,6.987,6.984
	l34.179,5.366l5.366,34.171c0.563,3.615,3.37,6.427,6.989,6.997l34.059,5.347l5.348,34.063c0.569,3.615,3.381,6.422,6.988,6.984
	l26.319,4.132L253.54,432.272l-23.433-23.433c-2.787-2.786-7.308-2.788-10.097,0c-2.788,2.789-2.788,7.309,0,10.097l23.432,23.432
	l-48.949,48.949l-4.133-26.322c-0.568-3.61-3.375-6.416-6.988-6.985l-34.059-5.346l-5.347-34.058
	c-0.213-1.357-0.741-2.6-1.509-3.653c-1.279-1.756-3.224-2.985-5.479-3.336l-34.18-5.367l-5.367-34.183
	c-0.568-3.609-3.375-6.415-6.988-6.984l-31.509-4.946l-4.946-31.507c-0.567-3.618-3.379-6.427-6.988-6.99l-26.32-4.132l48.95-48.95
	l113.665,113.666c2.788,2.787,7.309,2.787,10.097,0c2.788-2.789,2.788-7.309,0-10.097L79.729,258.46l161.9-161.901
	c2.788-2.789,2.788-7.309,0-10.097c-2.788-2.787-7.309-2.787-10.097,0L2.52,315.475c-0.002,0.002,0.002-0.002,0,0l0,0
	c-2.291,2.292-3.096,5.614-2.099,8.671c0.246,0.753,0.59,1.455,1.017,2.09c1.281,1.907,3.308,3.224,5.658,3.591l33.453,5.252
	l4.947,31.513c0.071,0.451,0.177,0.89,0.315,1.313c0.967,2.963,3.511,5.174,6.673,5.671l31.509,4.946l5.366,34.177
	c0.071,0.451,0.177,0.89,0.314,1.314c0.91,2.795,3.229,4.895,6.131,5.546c0.182,0.041,0.356,0.101,0.543,0.13l34.179,5.366
	l5.347,34.057c0.566,3.612,3.373,6.421,6.988,6.991l34.06,5.346l5.252,33.454c0.492,3.136,2.67,5.694,5.684,6.675
	c0.866,0.283,1.754,0.42,2.634,0.42c2.223,0,4.393-0.878,6.035-2.519l0,0c0.001-0.001-0.001,0.001,0,0l312.956-312.955
	C511.771,194.234,512.575,190.911,511.58,187.855z"/>
<g>
</g>
<g>
</g>
<g>
</g>
<g>
</g>
<g>
</g>
<g>
</g>
<g>
</g>
<g>
</g>
<g>
</g>
<g>
</g>
<g>
</g>
<g>
</g>
<g>
</g>
<g>
</g>
<g>
</g>
</svg>
