<svg height="480pt" viewBox="0 0 480 480" width="480pt" xmlns="http://www.w3.org/2000/svg"><path d="m328 8v464h-80v-128h-160v128h-80v-464zm0 0" fill="#ffc170"/><path d="m376 112h96v256h-96zm0 0" fill="#ff9811"/><path d="m328 160h48v32h-48zm0 0" fill="#a0815c"/><path d="m328 280h48v32h-48zm0 0" fill="#a0815c"/><path d="m88 344h80v128h-80zm0 0" fill="#d1d3d4"/><path d="m168 344h80v128h-80zm0 0" fill="#e6e7e8"/><g fill="#bf720d"><path d="m136 40h64v64h-64zm0 0"/><path d="m232 40h64v64h-64zm0 0"/><path d="m40 40h64v64h-64zm0 0"/><path d="m136 136h64v64h-64zm0 0"/><path d="m232 136h64v64h-64zm0 0"/><path d="m40 136h64v64h-64zm0 0"/><path d="m136 232h64v64h-64zm0 0"/><path d="m232 232h64v64h-64zm0 0"/><path d="m40 232h64v64h-64zm0 0"/></g><path d="m472 104h-96c-4.417969 0-8 3.582031-8 8v40h-32v-144c0-4.417969-3.582031-8-8-8h-320c-4.417969 0-8 3.582031-8 8v464c0 4.417969 3.582031 8 8 8h320c4.417969 0 8-3.582031 8-8v-152h32v48c0 4.417969 3.582031 8 8 8h96c4.417969 0 8-3.582031 8-8v-256c0-4.417969-3.582031-8-8-8zm-136 96h32v72h-32zm32-32v16h-32v-16zm-208 296h-64v-112h64zm16 0v-112h64v112zm144 0h-64v-120c0-4.417969-3.582031-8-8-8h-160c-4.417969 0-8 3.582031-8 8v120h-64v-448h304zm16-160v-16h32v16zm128 56h-80v-240h80zm0 0"/><path d="m200 32h-64c-4.417969 0-8 3.582031-8 8v64c0 4.417969 3.582031 8 8 8h64c4.417969 0 8-3.582031 8-8v-64c0-4.417969-3.582031-8-8-8zm-8 64h-48v-48h48zm0 0"/><path d="m296 32h-64c-4.417969 0-8 3.582031-8 8v64c0 4.417969 3.582031 8 8 8h64c4.417969 0 8-3.582031 8-8v-64c0-4.417969-3.582031-8-8-8zm-8 64h-48v-48h48zm0 0"/><path d="m104 32h-64c-4.417969 0-8 3.582031-8 8v64c0 4.417969 3.582031 8 8 8h64c4.417969 0 8-3.582031 8-8v-64c0-4.417969-3.582031-8-8-8zm-8 64h-48v-48h48zm0 0"/><path d="m200 128h-64c-4.417969 0-8 3.582031-8 8v64c0 4.417969 3.582031 8 8 8h64c4.417969 0 8-3.582031 8-8v-64c0-4.417969-3.582031-8-8-8zm-8 64h-48v-48h48zm0 0"/><path d="m296 128h-64c-4.417969 0-8 3.582031-8 8v64c0 4.417969 3.582031 8 8 8h64c4.417969 0 8-3.582031 8-8v-64c0-4.417969-3.582031-8-8-8zm-8 64h-48v-48h48zm0 0"/><path d="m104 128h-64c-4.417969 0-8 3.582031-8 8v64c0 4.417969 3.582031 8 8 8h64c4.417969 0 8-3.582031 8-8v-64c0-4.417969-3.582031-8-8-8zm-8 64h-48v-48h48zm0 0"/><path d="m200 224h-64c-4.417969 0-8 3.582031-8 8v64c0 4.417969 3.582031 8 8 8h64c4.417969 0 8-3.582031 8-8v-64c0-4.417969-3.582031-8-8-8zm-8 64h-48v-48h48zm0 0"/><path d="m296 224h-64c-4.417969 0-8 3.582031-8 8v64c0 4.417969 3.582031 8 8 8h64c4.417969 0 8-3.582031 8-8v-64c0-4.417969-3.582031-8-8-8zm-8 64h-48v-48h48zm0 0"/><path d="m104 224h-64c-4.417969 0-8 3.582031-8 8v64c0 4.417969 3.582031 8 8 8h64c4.417969 0 8-3.582031 8-8v-64c0-4.417969-3.582031-8-8-8zm-8 64h-48v-48h48zm0 0"/><path d="m400 136h48v16h-48zm0 0"/><path d="m400 184h48v16h-48zm0 0"/><path d="m400 232h48v16h-48zm0 0"/><path d="m400 280h48v16h-48zm0 0"/><path d="m400 328h48v16h-48zm0 0"/></svg>