<svg xmlns="http://www.w3.org/2000/svg" viewBox="0 0 684.82 220.35"><defs><style>.cls-1{fill:#35469d;}.cls-2{fill:#f8961d;}.cls-3{fill:#34469d;}.cls-4{fill:#fff200;}</style></defs><title>logo</title><g id="Layer_2" data-name="Layer 2"><g id="Layer_1-2" data-name="Layer 1"><path class="cls-1" d="M684.74,86.87c0,5.36-1.29,3.65-3.87,7.29s-6.52,5.48-11.81,5.48H241.83V88H655.65a4.84,4.84,0,0,0,4.11-1.64c.82-1.1,1.23,3.47,1.23,1.28V70.1h-.4A13.17,13.17,0,0,1,658,76a6.26,6.26,0,0,1-4.9,1.87H624.24q-15.42,0-15.42-19.14V21.66h23.75V61.3c0,3.32,1.43,5,4.27,5h19.95A4.05,4.05,0,0,0,660,65.16c.65-.73,1-2,1-3.86V21.66h23.75Z"/><path class="cls-1" d="M684.82,182.49V193h-7.34V182.49Z"/><path class="cls-1" d="M658.66,143.56,684.82,156v9.7l-26.16,12.56V167.81l20.91-9.95L658.66,148Z"/><path class="cls-1" d="M684.82,109v9.67H664.58c-1.2,0-1.79.57-1.79,1.71v8.13a2.71,2.71,0,0,0,.17,1,1.07,1.07,0,0,0,.56.55,2.72,2.72,0,0,0,1.06.17h20.24v9.67H658.66v-9.35h2.69v-.11a4.2,4.2,0,0,1-2.05-1.07,2.78,2.78,0,0,1-.64-2V115.23q0-6.28,6.79-6.28Z"/><rect class="cls-1" x="236.83" y="88.11" width="10.17" height="124.5"/><rect class="cls-1" x="458.22" y="-13.98" width="10.28" height="442.91" transform="translate(670.83 -255.89) rotate(90)"/><path class="cls-1" d="M291.82,73.41h-17V68.57h-.19A6.91,6.91,0,0,1,272.87,72,3.9,3.9,0,0,1,270,73.41H247.88a10.32,10.32,0,0,1-8.11-3.28q-2.94-3.27-2.94-10v-25q0-13.43,11-13.43H269a4.16,4.16,0,0,1,3.28,1.26A12.82,12.82,0,0,1,274.43,27h.38V15.71H253.45V10.12h21.36V3h17v7.14h4.11v5.59h-4.11Zm-17-11.66V33.38a4.28,4.28,0,0,0-.67-2.76,3,3,0,0,0-2.35-.78H256.9q-3.06,0-3.06,3.54V61.75a4.11,4.11,0,0,0,.69,2.71,3,3,0,0,0,2.37.78h15.28Q274.81,65.24,274.81,61.75Z"/><path class="cls-1" d="M317.67,73.41h-17V21.67h17Zm-2.28-57.32H302.71V6.84h12.68Z"/><polygon class="cls-1" points="365.97 15.84 357.67 15.84 352.98 9.12 348.3 15.84 340.08 15.84 348.4 3.86 357.57 3.86 365.97 15.84"/><path class="cls-1" d="M380.5,51.29h-38v9.46q0,3.5,2.82,3.49H379.5v8.17H336.74q-5.83,0-8.53-3.49t-2.7-9.84V34q0-6.34,2.7-9.84t8.53-3.49h32.49q11.28,0,11.27,13.33Zm-17-8.16V32.38q0-3.54-2.82-3.54H345.34q-2.82,0-2.82,3.54V43.13Z"/><rect class="cls-1" x="346.63" y="75.95" width="12.71" height="9.24"/><path class="cls-1" d="M441.71,73.41h-17v-40q0-3.54-3-3.54H407.41a4.06,4.06,0,0,0-1.8.35,2,2,0,0,0-1,1.1,6.12,6.12,0,0,0-.28,2.09v40h-17V21.67h16.44V27H404a8.78,8.78,0,0,1,1.88-4.06,4.62,4.62,0,0,1,3.47-1.26h21.36q11,0,11,13.43Z"/><path class="cls-1" d="M537.42,73.41h-17v-40q0-3.54-3.06-3.54h-12.8a3,3,0,0,0-2.35.78,4.36,4.36,0,0,0-.66,2.76v40h-17v-40q0-3.54-3-3.54H468.67a4.06,4.06,0,0,0-1.8.35,2,2,0,0,0-1,1.1,6.08,6.08,0,0,0-.29,2.09v40h-17V21.67H465V27h.19a8.88,8.88,0,0,1,1.89-4.06,4.59,4.59,0,0,1,3.46-1.26h23.9c2.1,0,3.58.39,4.44,1.16a7.77,7.77,0,0,1,2,3.84,16.09,16.09,0,0,1,2.22-3.9,3.8,3.8,0,0,1,3-1.1h20.26q11,0,11,13.43Z"/><path class="cls-1" d="M599.3,73.41H584.53L583.76,68h-.19a10.93,10.93,0,0,1-2.15,3.89,5.13,5.13,0,0,1-4,1.48h-22q-5.75,0-8.39-3.9c-1.77-2.59-2.66-6.87-2.66-12.81V54.28a34,34,0,0,1,1.13-9.72,9.5,9.5,0,0,1,3.63-5.35,11.57,11.57,0,0,1,6.58-1.69h26.65v-6c0-1.48-.78-2.22-2.35-2.22h-34V21.67h41.9q11.48,0,11.47,13.43Zm-17-11.55V45.69H564.14a2.6,2.6,0,0,0-2.16.83,4.21,4.21,0,0,0-.67,2.66V61.86c0,2.25.85,3.38,2.54,3.38h15.61a2.77,2.77,0,0,0,2.16-.75A4,4,0,0,0,582.29,61.86ZM584.15,4,573.48,16h-7.29L573,4Z"/><path class="cls-2" d="M353,193.88H329.72V188h-.34a6,6,0,0,1-3,4.49q-2.42,1.38-7.46,1.38H282.06q-8.73,0-13.16-3.47a11.64,11.64,0,0,1-4.43-9.7V140.12a11.64,11.64,0,0,1,4.43-9.67q4.43-3.49,13.16-3.5h68.19v8.58H295.49q-4.77,0-4.77,3.57v42.63a3.13,3.13,0,0,0,1.19,2.76,6.43,6.43,0,0,0,3.58.81h28.37q3.75,0,3.75-2.7V162.53H298V154h55Z"/><path class="cls-2" d="M391.84,193.88H365.59V127h26.25Z"/><path class="cls-2" d="M506.19,193.88H477.94l-11.12-19H426.15l-11,19H402.54L442.6,127h22.92Zm-44.56-27.62L446.42,141l-15,25.27Zm7.51-56.1-15.22,11.38h-10.3l9.62-11.38Z"/><path class="cls-2" d="M598.78,180.91a11.63,11.63,0,0,1-7.63,11.36,24.76,24.76,0,0,1-9.55,1.61H517.1V185.3h51.62a5.79,5.79,0,0,0,3.54-.86,3.76,3.76,0,0,0,1.09-3.11v-9a3.63,3.63,0,0,0-1-2.88,5.58,5.58,0,0,0-3.61-.89H534.26q-8.18,0-12.67-3.43t-4.49-9.76V140.14a12.67,12.67,0,0,1,1.81-6.85,12.25,12.25,0,0,1,5.65-4.63,24,24,0,0,1,9.72-1.71h64.5v8.58h-51.2a6.59,6.59,0,0,0-3.92.87,3.42,3.42,0,0,0-1.13,2.9v7.1a3.41,3.41,0,0,0,1,2.66,5.37,5.37,0,0,0,3.55.91h34.09q8.87,0,13.23,3.5a11.49,11.49,0,0,1,4.36,9.47Z"/><path class="cls-2" d="M637.58,193.88H611.33V127h26.25Zm.82-80.41v.41a2.25,2.25,0,0,1-1.33,2.22,12.29,12.29,0,0,1-4.81.64h-3.61c-1.09,0-1.64.41-1.64,1.23v3.16h-9v-5.87c0-1.46,1.23-2.2,3.69-2.2h5.72c1,0,1.5-.42,1.5-1.27v-2.5a.85.85,0,0,0-.37-.82,3.69,3.69,0,0,0-1.54-.2H616.24v-3.68h16c2.37,0,4,.28,4.85.84a3.36,3.36,0,0,1,1.29,3Z"/><circle class="cls-3" cx="110.17" cy="110.17" r="110.17"/><polygon class="cls-4" points="110.17 29.78 78.89 178.06 30.35 176.63 91.16 7.28 128.74 7.28 190 176.63 138.98 176.63 110.17 29.78"/></g></g></svg>