<?xml version="1.0" encoding="iso-8859-1"?>
<!-- Generator: Adobe Illustrator 19.0.0, SVG Export Plug-In . SVG Version: 6.00 Build 0)  -->
<svg version="1.1" id="Capa_1" xmlns="http://www.w3.org/2000/svg" xmlns:xlink="http://www.w3.org/1999/xlink" x="0px" y="0px"
	 viewBox="0 0 512 512" style="enable-background:new 0 0 512 512;" xml:space="preserve">
<path style="fill:#F44336;" d="M326.624,64h-141.28L96,153.376V480c0,17.664,14.368,32,32,32h256c17.664,0,32-14.336,32-32V153.376
	L326.624,64z"/>
<circle style="fill:#FAFAFA;" cx="256" cy="144" r="48"/>
<path style="fill:#37474F;" d="M256,160c-8.832,0-16-7.168-16-16V16c0-8.832,7.168-16,16-16s16,7.168,16,16v128
	C272,152.832,264.832,160,256,160z"/>
<g>
	<path style="fill:#FAFAFA;" d="M208,320c-26.464,0-48-21.536-48-48s21.536-48,48-48s48,21.536,48,48S234.464,320,208,320z M208,256
		c-8.832,0-16,7.168-16,16s7.168,16,16,16s16-7.168,16-16S216.832,256,208,256z"/>
	<path style="fill:#FAFAFA;" d="M304,448c-26.464,0-48-21.536-48-48s21.536-48,48-48s48,21.536,48,48S330.464,448,304,448z M304,384
		c-8.8,0-16,7.2-16,16s7.2,16,16,16s16-7.2,16-16S312.8,384,304,384z"/>
	<path style="fill:#FAFAFA;" d="M176,448c-3.616,0-7.232-1.216-10.24-3.712c-6.784-5.664-7.712-15.744-2.048-22.528l160-192
		c5.696-6.784,15.776-7.648,22.528-2.048c6.784,5.664,7.68,15.744,2.016,22.56l-160,192C185.12,446.016,180.576,448,176,448z"/>
</g>
<g>
</g>
<g>
</g>
<g>
</g>
<g>
</g>
<g>
</g>
<g>
</g>
<g>
</g>
<g>
</g>
<g>
</g>
<g>
</g>
<g>
</g>
<g>
</g>
<g>
</g>
<g>
</g>
<g>
</g>
</svg>
