<?xml version="1.0" encoding="iso-8859-1"?>
<!-- Generator: Adobe Illustrator 19.0.0, SVG Export Plug-In . SVG Version: 6.00 Build 0)  -->
<svg version="1.1" id="Capa_1" xmlns="http://www.w3.org/2000/svg" xmlns:xlink="http://www.w3.org/1999/xlink" x="0px" y="0px"
	 viewBox="0 0 512.001 512.001" style="enable-background:new 0 0 512.001 512.001;" xml:space="preserve">
<g>
	<g>
		<path d="M397.059,296.216c-0.006,0-0.012,0-0.017,0c-4.155,0-7.528,3.364-7.537,7.521l-0.066,30.61
			c-0.009,4.163,3.358,7.545,7.521,7.554c0.006,0,0.012,0,0.017,0c4.155,0,7.528-3.364,7.537-7.521l0.066-30.61
			C404.588,299.606,401.221,296.224,397.059,296.216z"/>
	</g>
</g>
<g>
	<g>
		<path d="M396.917,361.916c-0.005,0-0.011,0-0.016,0c-4.155,0-7.528,3.364-7.537,7.521l-0.066,30.652
			c-0.009,4.163,3.358,7.545,7.522,7.553c0.005,0,0.011,0,0.016,0c4.155,0,7.528-3.364,7.537-7.521l0.066-30.652
			C404.447,365.307,401.08,361.925,396.917,361.916z"/>
	</g>
</g>
<g>
	<g>
		<path d="M355.936,179.881l-14.972-27.024c-2.017-3.641-6.605-4.956-10.246-2.94c-3.641,2.017-4.957,6.604-2.94,10.246
			l14.972,27.024c1.376,2.484,3.948,3.886,6.6,3.886c1.236,0,2.489-0.305,3.646-0.946
			C356.637,188.11,357.953,183.523,355.936,179.881z"/>
	</g>
</g>
<g>
	<g>
		<g>
			<path d="M383.637,38.659l0.143-0.092C383.63,38.65,383.78,38.567,383.637,38.659z"/>
			<path d="M507.247,231.629l-30.181-54.478c-0.606-1.093-1.467-2.007-2.497-2.674c-0.618-0.4-1.296-0.711-2.017-0.918
				c-1.92-0.552-3.984-0.317-5.732,0.652c-8.605,4.768-18.553,5.899-28.01,3.185c-9.457-2.714-17.291-8.948-22.058-17.554
				c-9.842-17.766-3.396-40.226,14.37-50.068c0.22-0.122,0.434-0.255,0.639-0.397c0.166-0.115,0.321-0.239,0.475-0.365
				c0.036-0.029,0.075-0.055,0.11-0.085c0.18-0.152,0.35-0.313,0.513-0.48c0.007-0.008,0.016-0.014,0.023-0.022
				c0.161-0.167,0.313-0.341,0.457-0.52c0.01-0.012,0.02-0.022,0.029-0.034c0.137-0.172,0.263-0.351,0.383-0.533
				c0.015-0.023,0.032-0.044,0.047-0.067c0.109-0.169,0.207-0.343,0.301-0.519c0.022-0.041,0.048-0.08,0.07-0.122
				c0.086-0.167,0.16-0.338,0.232-0.51c0.024-0.055,0.052-0.108,0.074-0.163c0.087-0.219,0.162-0.442,0.228-0.668
				c0.003-0.01,0.007-0.019,0.01-0.029c0.004-0.015,0.006-0.031,0.011-0.046c0.062-0.221,0.115-0.444,0.157-0.67
				c0.013-0.073,0.019-0.147,0.03-0.221c0.026-0.17,0.053-0.339,0.068-0.511c0.005-0.062,0.004-0.123,0.007-0.185
				c0.011-0.184,0.021-0.369,0.018-0.554c-0.001-0.045-0.006-0.09-0.008-0.135c-0.006-0.201-0.016-0.402-0.039-0.602
				c-0.003-0.032-0.011-0.063-0.015-0.095c-0.026-0.211-0.059-0.422-0.103-0.632c-0.007-0.034-0.019-0.067-0.026-0.101
				c-0.047-0.204-0.097-0.407-0.162-0.609c-0.025-0.079-0.058-0.154-0.086-0.232c-0.055-0.154-0.107-0.309-0.172-0.461
				c-0.099-0.231-0.21-0.457-0.332-0.679l-6.112-11.032l-24.448-44.131c-3.904-7.049-12.819-9.604-19.864-5.705L7.532,246.961
				c-7.051,3.905-9.609,12.818-5.704,19.87l30.559,55.161c2.017,3.641,6.606,4.956,10.246,2.94
				c17.763-9.841,40.225-3.397,50.067,14.369c2.213,3.992,3.643,8.305,4.263,12.82c0,0.027-0.004,0.053-0.004,0.08
				c-0.044,20.284-16.558,36.753-36.831,36.753c-0.032-0.001-0.072,0.001-0.097,0c-1.993,0-3.905,0.79-5.318,2.196
				c-1.416,1.411-2.215,3.326-2.219,5.325l-0.135,63.061c-0.009,3.904,1.504,7.578,4.257,10.345
				c2.755,2.767,6.421,4.295,10.325,4.304l429.933,0.982c0.011,0,0.023,0,0.033,0c3.892,0,7.553-1.511,10.312-4.258
				c2.768-2.755,4.296-6.423,4.304-10.327l0.136-63.06c0.004-1.999-0.786-3.918-2.196-5.335c-1.41-1.417-3.326-2.215-5.325-2.219
				c-20.309-0.044-36.796-16.602-36.753-36.911c0.022-9.838,3.873-19.079,10.845-26.021c6.952-6.923,16.178-10.732,25.985-10.732
				c0.027,0,0.055,0,0.081,0c1.981,0.01,3.918-0.786,5.335-2.196c1.416-1.411,2.215-3.326,2.219-5.325l0.144-66.577
				c0-0.045,0.001-0.089,0-0.133l0.007-3.43C512.007,235.46,510.036,232.739,507.247,231.629z M54.105,238.748
				c-0.084,0.187-0.162,0.375-0.238,0.566c-0.108,0.272-0.212,0.545-0.304,0.823c-0.074,0.224-0.136,0.453-0.199,0.682
				c-0.07,0.256-0.144,0.51-0.2,0.771c-0.064,0.292-0.108,0.592-0.154,0.89c-0.032,0.208-0.074,0.413-0.097,0.624
				c-0.057,0.518-0.091,1.042-0.092,1.575l-0.002,1.1L52.7,305.828c-3.544,0.534-7.068,1.443-10.513,2.743l-26.95-48.644
				l39.06-21.632C54.223,238.441,54.172,238.598,54.105,238.748z M296.69,104.047l13.87,25.035
				c2.017,3.642,6.606,4.956,10.246,2.941c3.641-2.017,4.957-6.604,2.94-10.246l-13.869-25.034l80.661-44.673l26.951,48.646
				c-12.593,9.592-19.816,24.238-20.379,39.439c-0.056,1.52-0.046,3.046,0.032,4.573c0.157,3.053,0.584,6.111,1.294,9.137
				c1.065,4.539,2.763,9.006,5.131,13.281c0.533,0.962,1.102,1.895,1.689,2.813c0.144,0.225,0.29,0.446,0.437,0.668
				c0.533,0.809,1.085,1.601,1.659,2.375c0.066,0.089,0.129,0.18,0.195,0.268c6.736,8.959,16.144,15.468,27.108,18.614
				c10.88,3.122,22.222,2.633,32.618-1.308l22.424,40.481l-105.544-0.241l-11.323-20.438c-2.017-3.642-6.606-4.958-10.246-2.941
				c-3.641,2.017-4.957,6.604-2.94,10.246l7.253,13.093l-66.578-0.152c-1.069-10.082-3.975-19.458-8.682-27.953
				c-7.238-13.065-19.131-22.53-33.487-26.65c-14.358-4.121-29.459-2.404-42.524,4.835c-12.554,6.955-21.746,18.197-26.079,31.59
				c-13.651-3.428-28.059-1.598-40.614,5.358c-5.843,3.237-10.957,7.42-15.266,12.439l-64.57-0.147L296.69,104.047z M285.138,230.59
				l-127.596-0.291c10.775-5.481,23.248-5.926,34.459-1.174c2.134,0.904,4.567,0.776,6.593-0.346
				c2.029-1.123,3.426-3.117,3.791-5.406c1.995-12.51,9.484-23.2,20.548-29.329c9.543-5.287,20.573-6.542,31.06-3.532
				c10.486,3.01,19.172,9.922,24.459,19.465C281.917,216.232,284.155,223.14,285.138,230.59z M496.789,301.754
				c-11.008,1.567-21.176,6.614-29.197,14.601c-9.825,9.783-15.252,22.806-15.283,36.671c-0.055,26.063,19.205,47.741,44.26,51.456
				l-0.121,55.61l-92.205-0.211l0.053-24.684c0.009-4.163-3.358-7.545-7.521-7.553c-0.006,0-0.012,0-0.017,0
				c-4.155,0-7.528,3.364-7.537,7.521l-0.053,24.681l-321.735-0.735l0.12-55.606c11.008-1.567,21.176-6.614,29.198-14.6
				c9.824-9.783,15.251-22.806,15.282-36.671c0-0.211-0.014-0.418-0.03-0.624c0.003-0.107,0.012-0.213,0.011-0.322
				c-0.392-24.727-18.22-42.675-44.24-45.623l0.12-60.498l321.736,0.735l-0.049,22.695c-0.009,4.163,3.358,7.545,7.521,7.553
				c0.006,0,0.011,0,0.017,0c4.155,0,7.528-3.364,7.537-7.521l0.049-22.693l92.204,0.211L496.789,301.754z"/>
		</g>
	</g>
</g>
<g>
	<g>
		<path d="M320.943,290.036c-10.538-10.584-24.567-16.431-39.503-16.463c-0.043,0-0.082,0-0.125,0
			c-14.304,0-27.759,5.348-38.029,14.913c-10.26-9.638-23.738-15.047-38.09-15.078c-0.042,0-0.081,0-0.123,0
			c-30.775,0-55.849,25.006-55.915,55.797c-0.059,27.334,15.892,53.705,46.131,76.262c22.144,16.52,44.023,25.225,44.943,25.588
			c0.887,0.349,1.824,0.524,2.762,0.524c0.926,0,1.853-0.171,2.731-0.512c0.923-0.359,22.839-8.97,45.053-25.393
			c30.335-22.427,46.4-48.729,46.458-76.063C337.268,314.675,331.482,300.62,320.943,290.036z M243.006,415.863
			c-14.243-6.266-78.88-37.431-78.774-86.624c0.049-22.492,18.36-40.755,40.842-40.755c0.028,0,0.06,0,0.088,0
			c12.649,0.027,24.368,5.774,32.153,15.767c1.424,1.828,3.611,2.9,5.929,2.905c0.006,0,0.011,0,0.017,0
			c2.312,0,4.497-1.061,5.926-2.88c7.809-9.935,19.516-15.628,32.129-15.628c0.03,0,0.061,0,0.09,0
			c10.91,0.024,21.157,4.294,28.856,12.025c7.697,7.731,11.923,17.997,11.9,28.906C322.057,378.676,257.257,409.648,243.006,415.863
			z"/>
	</g>
</g>
<g>
</g>
<g>
</g>
<g>
</g>
<g>
</g>
<g>
</g>
<g>
</g>
<g>
</g>
<g>
</g>
<g>
</g>
<g>
</g>
<g>
</g>
<g>
</g>
<g>
</g>
<g>
</g>
<g>
</g>
</svg>
