<?xml version="1.0" encoding="iso-8859-1"?>
<!-- Generator: Adobe Illustrator 19.0.0, SVG Export Plug-In . SVG Version: 6.00 Build 0)  -->
<svg version="1.1" id="Capa_1" xmlns="http://www.w3.org/2000/svg" xmlns:xlink="http://www.w3.org/1999/xlink" x="0px" y="0px"
	 viewBox="0 0 497.552 497.552" style="enable-background:new 0 0 497.552 497.552;" xml:space="preserve">
<rect x="361.547" y="336.803" transform="matrix(-0.7072 0.707 -0.707 -0.7072 891.6398 368.3509)" style="fill:#3F3A34;" width="16" height="63.999"/>
<polygon style="fill:#FFCB57;" points="209.552,360.776 249.552,360.776 249.552,240.776 209.552,232.776 "/>
<path style="fill:#E56565;" d="M288.728,449.6l51.952-109.68l109.688-51.96l-51.952,109.68L288.728,449.6z M352.704,351.928
	l-30.328,64.024l64.032-30.336l30.328-64.024L352.704,351.928z"/>
<g>
	<polygon style="fill:#FFCB57;" points="113.552,352.776 81.552,352.776 81.552,240.776 113.552,232.776 	"/>
	<path style="fill:#FFCB57;" d="M177.552,8.776h-32c-35.344,0-64,28.656-64,64v32h160v-32
		C241.552,37.432,212.896,8.776,177.552,8.776z"/>
	<path style="fill:#FFCB57;" d="M305.552,72.776h-64v32h64c8.84,0,16-7.16,16-16S314.392,72.776,305.552,72.776z"/>
</g>
<g>
	<path style="fill:#3F3A34;" d="M369.552,240.776c-70.576,0-128,57.424-128,128s57.424,128,128,128s128-57.424,128-128
		S440.128,240.776,369.552,240.776z M369.552,480.776c-61.76,0-112-50.24-112-112s50.24-112,112-112s112,50.24,112,112
		S431.312,480.776,369.552,480.776z"/>
	<path style="fill:#3F3A34;" d="M369.552,288.776c12.36,0,24.312,2.832,35.52,8.408l7.128-14.328
		c-13.448-6.688-27.8-10.08-42.648-10.08c-52.936,0-96,43.064-96,96c0,14.84,3.392,29.192,10.08,42.648l14.328-7.128
		c-5.576-11.216-8.408-23.168-8.408-35.52C289.552,324.664,325.44,288.776,369.552,288.776z"/>
	<path style="fill:#3F3A34;" d="M455.472,326.128l-14.328,7.128c5.576,11.216,8.408,23.168,8.408,35.52c0,44.112-35.888,80-80,80
		c-12.36,0-24.312-2.832-35.52-8.408l-7.128,14.328c13.448,6.688,27.8,10.08,42.648,10.08c52.936,0,96-43.064,96-96
		C465.552,353.936,462.16,339.584,455.472,326.128z"/>
	<path style="fill:#3F3A34;" d="M249.552,288.776v-36.8l15.472,4.216c4.296,1.168,8.344,3.032,12.024,5.544l9.016-13.216
		c-5.16-3.512-10.824-6.128-16.832-7.768l-51.68-14.088v-9.888h-16v15.208c-3.808,19-20.624,32.792-40,32.792
		s-36.192-13.792-40-32.8v-15.2h-16v9.888L53.88,240.76c-1.496,0.408-2.888,1.008-4.328,1.528v-33.512c0-13.232,10.768-24,24-24
		h28.688l24.968,24.968c4.528,4.536,10.56,7.032,16.968,7.032h34.752c6.408,0,12.44-2.496,16.968-7.032l24.968-24.968h28.688
		c13.232,0,24,10.768,24,24v16h16v-16c0-22.056-17.944-40-40-40H234.08c1.56-2.704,2.88-5.528,3.96-8.456
		c15.512-2.2,27.512-15.432,27.512-31.544c0-5.856-1.696-11.272-4.448-16h44.448c13.232,0,24-10.768,24-24s-10.768-24-24-24H249.08
		c-3.992-35.944-34.528-64-71.528-64h-32c-39.704,0-72,32.304-72,72v28.448c-9.52,5.552-16,15.76-16,27.552
		c0,16.112,12,29.344,27.512,31.544c1.08,2.92,2.4,5.744,3.96,8.456H73.552c-22.056,0-40,17.944-40,40v42.44
		c-10.84,8.704-18.32,21.224-20.336,35.384L0,360.776h225.552v-16h-8V243.248l16,4.368v41.16H249.552z M184.584,198.432
		c-1.496,1.488-3.552,2.344-5.656,2.344h-34.752c-2.104,0-4.168-0.856-5.656-2.344l-29.248-29.256
		c-7.552-7.552-11.72-17.592-11.72-28.28v-28.12h128v28.12c0,10.688-4.168,20.736-11.72,28.288L184.584,198.432z M185.552,96.776
		h-48v-16h48V96.776z M241.472,142.592c0.016-0.568,0.08-1.128,0.08-1.704V115c4.76,2.776,8,7.88,8,13.776
		C249.552,134.704,246.272,139.832,241.472,142.592z M313.552,88.776c0,4.408-3.584,8-8,8h-56v-16h56
		C309.968,80.776,313.552,84.368,313.552,88.776z M89.552,72.776c0-30.88,25.128-56,56-56h32c30.872,0,56,25.12,56,56v24h-32v-16
		c0-8.824-7.176-16-16-16h-48c-8.824,0-16,7.176-16,16v16h-32V72.776z M73.552,128.776c0-5.896,3.24-11,8-13.776v25.888
		c0,0.576,0.064,1.136,0.08,1.704C76.832,139.832,73.552,134.704,73.552,128.776z M105.552,344.776h-16v-97.16l16-4.368V344.776z
		 M29.016,289.128c2.256-15.808,13.672-28.736,29.072-32.936l15.464-4.216v92.8H19.096L29.016,289.128z M121.552,344.776v-80.808
		c10.384,10.36,24.536,16.808,40,16.808c15.448,0,29.592-6.44,40-16.928v80.928H121.552z"/>
</g>
<g>
</g>
<g>
</g>
<g>
</g>
<g>
</g>
<g>
</g>
<g>
</g>
<g>
</g>
<g>
</g>
<g>
</g>
<g>
</g>
<g>
</g>
<g>
</g>
<g>
</g>
<g>
</g>
<g>
</g>
</svg>
