<svg height="483pt" viewBox="0 -61 483.00036 483" width="483pt" xmlns="http://www.w3.org/2000/svg"><path d="m60.398438 118.902344 32.101562-15 96.199219 45.101562c1.324219.582032 2.753906.890625 4.199219.898438 4.695312.003906 8.761718-3.25 9.792968-7.828125s-1.25-9.261719-5.492187-11.269531l-81.199219-38 81.199219-38c4.890625-2.410157 6.949219-8.289063 4.632812-13.222657-2.316406-4.933593-8.15625-7.101562-13.132812-4.878906l-96.199219 45.101563-32.101562-15c13.609374-10.648438 18.144531-29.238282 10.96875-44.957032-7.179688-15.71875-24.195313-24.464844-41.15625-21.15625-16.957032 3.3125-29.4375 17.816406-30.1757818 35.078125-.7421872 17.265625 10.4531248 32.785157 27.0664058 37.535157l41.898438 19.597656-41.898438 19.601562c-16.578124 4.796875-27.707031 20.328125-26.914062 37.566406.789062 17.238282 13.296875 31.6875 30.242188 34.945313 16.945312 3.257813 33.914062-5.527344 41.042968-21.242187 7.125-15.71875 2.546875-34.269532-11.074218-44.871094zm-23-99.097656c9.613281 0 17.402343 7.789062 17.402343 17.398437s-7.789062 17.398437-17.402343 17.398437c-9.609376 0-17.398438-7.789062-17.398438-17.398437.007812-9.605469 7.792969-17.394531 17.398438-17.398437zm0 146c-9.609376 0-17.398438-7.792969-17.398438-17.402344s7.789062-17.398438 17.398438-17.398438c9.613281 0 17.402343 7.789063 17.402343 17.398438-.007812 9.609375-7.792969 17.394531-17.402343 17.402344zm0 0"/><path d="m473 318.804688c-5.515625.015624-9.984375 4.480468-10 10v12h-12c-5.523438 0-10 4.476562-10 10 0 5.519531 4.476562 10 10 10h22c5.515625-.015626 9.984375-4.484376 10-10v-22c-.015625-5.519532-4.484375-9.984376-10-10zm0 0"/><path d="m314.300781 340.804688h-45.601562c-5.523438 0-10 4.476562-10 10 0 5.519531 4.476562 10 10 10h45.601562c5.523438 0 10-4.480469 10-10 0-5.523438-4.476562-10-10-10zm0 0"/><path d="m405.398438 340.804688h-45.597657c-5.523437 0-10 4.476562-10 10 0 5.519531 4.476563 10 10 10h45.597657c5.523437 0 10-4.480469 10-10 0-5.523438-4.476563-10-10-10zm0 0"/><path d="m223.101562 340.804688h-45.601562c-5.523438 0-10 4.476562-10 10 0 5.519531 4.476562 10 10 10h45.601562c5.523438 0 10-4.480469 10-10 0-5.523438-4.476562-10-10-10zm0 0"/><path d="m132 340.804688h-12v-12c0-5.523438-4.476562-10-10-10s-10 4.476562-10 10v22c.015625 5.515624 4.484375 9.984374 10 10h22c5.523438 0 10-4.480469 10-10 0-5.523438-4.476562-10-10-10zm0 0"/><path d="m120 154.402344c0-5.523438-4.476562-10-10-10s-10 4.476562-10 10v43.601562c0 5.523438 4.476562 10 10 10s10-4.476562 10-10zm0 0"/><path d="m110 231.601562c-5.515625.015626-9.984375 4.484376-10 10v43.601563c0 5.523437 4.476562 10 10 10s10-4.476563 10-10v-43.601563c-.015625-5.515624-4.484375-9.984374-10-10zm0 0"/><path d="m405.398438 78.804688h-45.597657c-5.523437 0-10 4.476562-10 10 0 5.519531 4.476563 10 10 10h45.597657c5.523437 0 10-4.480469 10-10 0-5.523438-4.476563-10-10-10zm0 0"/><path d="m268.699219 98.804688h45.601562c5.523438 0 10-4.480469 10-10 0-5.523438-4.476562-10-10-10h-45.601562c-5.523438 0-10 4.476562-10 10 0 5.519531 4.476562 10 10 10zm0 0"/><path d="m223.101562 78.804688h-45.601562c-5.523438 0-10 4.476562-10 10 0 5.519531 4.476562 10 10 10h45.601562c5.523438 0 10-4.480469 10-10 0-5.523438-4.476562-10-10-10zm0 0"/><path d="m473 78.804688h-22c-5.523438 0-10 4.476562-10 10 0 5.519531 4.476562 10 10 10h12v12c0 5.519531 4.476562 10 10 10s10-4.480469 10-10v-22c-.015625-5.519532-4.484375-9.984376-10-10zm0 0"/><path d="m473 231.601562c-5.515625.015626-9.984375 4.484376-10 10v43.601563c0 5.523437 4.476562 10 10 10s10-4.476563 10-10v-43.601563c-.015625-5.515624-4.484375-9.984374-10-10zm0 0"/><path d="m473 144.402344c-5.515625.015625-9.984375 4.484375-10 10v43.601562c0 5.523438 4.476562 10 10 10s10-4.476562 10-10v-43.601562c-.015625-5.515625-4.484375-9.984375-10-10zm0 0"/></svg>