<svg height="512pt" viewBox="0 -100 512 511" width="512pt" xmlns="http://www.w3.org/2000/svg"><path d="m512 10.550781v290.234375c0 5.546875-4.503906 10.050782-10.050781 10.050782h-491.898438c-5.546875 0-10.050781-4.503907-10.050781-10.050782v-290.234375c0-5.546875 4.503906-10.050781 10.050781-10.050781h491.898438c5.546875 0 10.050781 4.503906 10.050781 10.050781zm0 0" fill="#d2d2d7"/><path d="m512 10.550781v250.539063c0 5.546875-4.503906 10.050781-10.050781 10.050781h-491.898438c-5.546875 0-10.050781-4.503906-10.050781-10.050781v-250.539063c0-5.546875 4.503906-10.050781 10.050781-10.050781h491.898438c5.546875 0 10.050781 4.503906 10.050781 10.050781zm0 0" fill="#ebebf0"/><path d="m512 10.550781v290.234375c0 5.546875-4.503906 10.050782-10.050781 10.050782h-125.453125l-17.507813-26.058594c-1.9375-2.898438-1.9375-7.066406 0-9.96875l2.472657-3.667969 11.691406-17.402344c1.9375-2.890625 1.9375-7.070312 0-9.96875l-14.164063-21.0625c-1.9375-2.902343-1.9375-7.082031 0-9.96875l14.164063-21.066406c1.9375-2.898437 1.9375-7.078125 0-9.964844l-14.164063-21.066406c-1.9375-2.898437-1.9375-7.078125 0-9.976563l14.164063-21.0625c1.9375-2.890624 1.9375-7.070312 0-9.96875l-14.164063-21.054687c-1.9375-2.898437-1.9375-7.078125 0-9.976563l14.164063-21.054687c1.9375-2.898437 1.9375-7.078125-.011719-9.96875l-14.152344-21.0625c-1.9375-2.886719-1.9375-7.070313 0-9.96875l17.507813-26.046875h125.453125c5.546875 0 10.050781 4.503906 10.050781 10.050781zm0 0" fill="#1ed688"/><g fill="#127d4f"><path d="m56.644531 131.613281c17.207031 0 31.207031-14 31.207031-31.210937 0-17.207032-14-31.207032-31.207031-31.207032s-31.207031 14-31.207031 31.207032c0 17.210937 14 31.210937 31.207031 31.210937zm0-46.777343c8.582031 0 15.566407 6.984374 15.566407 15.566406 0 8.585937-6.980469 15.566406-15.566407 15.566406-8.582031 0-15.566406-6.980469-15.566406-15.566406 0-8.582032 6.984375-15.566406 15.566406-15.566406zm0 0"/><path d="m170.1875 179.726562c-17.207031 0-31.207031 14-31.207031 31.207032 0 17.207031 14 31.207031 31.207031 31.207031s31.207031-14 31.207031-31.207031c0-17.207032-14-31.207032-31.207031-31.207032zm0 46.773438c-8.582031 0-15.566406-6.984375-15.566406-15.566406 0-8.585938 6.984375-15.566406 15.566406-15.566406 8.585938 0 15.566406 6.980468 15.566406 15.566406 0 8.582031-6.980468 15.566406-15.566406 15.566406zm0 0"/><path d="m191.429688 84.390625c-2.914063-3.191406-7.859376-3.410156-11.050782-.5l-144.476562 132.007813c-3.1875 2.914062-3.410156 7.859374-.496094 11.046874 1.539062 1.691407 3.65625 2.546876 5.773438 2.546876 1.886718 0 3.773437-.675782 5.273437-2.046876l144.476563-132.007812c3.191406-2.910156 3.414062-7.859375.5-11.046875zm0 0"/><path d="m322.675781 71.191406h-96.972656c-4.320313 0-7.820313 3.5-7.820313 7.820313 0 4.320312 3.5 7.820312 7.820313 7.820312h96.972656c4.320313 0 7.820313-3.5 7.820313-7.820312 0-4.320313-3.5-7.820313-7.820313-7.820313zm0 0"/><path d="m225.703125 125.160156h60.480469c4.320312 0 7.820312-3.5 7.820312-7.820312 0-4.320313-3.5-7.820313-7.820312-7.820313h-60.480469c-4.320313 0-7.820313 3.5-7.820313 7.820313 0 4.320312 3.5 7.820312 7.820313 7.820312zm0 0"/><path d="m322.675781 147.847656h-96.972656c-4.320313 0-7.820313 3.5-7.820313 7.820313 0 4.320312 3.5 7.820312 7.820313 7.820312h96.972656c4.320313 0 7.820313-3.5 7.820313-7.820312 0-4.320313-3.5-7.820313-7.820313-7.820313zm0 0"/><path d="m322.675781 186.175781h-96.972656c-4.320313 0-7.820313 3.5-7.820313 7.820313 0 4.320312 3.5 7.820312 7.820313 7.820312h96.972656c4.320313 0 7.820313-3.5 7.820313-7.820312 0-4.320313-3.5-7.820313-7.820313-7.820313zm0 0"/><path d="m262.203125 224.507812h-36.5c-4.320313 0-7.820313 3.5-7.820313 7.820313 0 4.316406 3.5 7.820313 7.820313 7.820313h36.5c4.320313 0 7.820313-3.503907 7.820313-7.820313 0-4.320313-3.5-7.820313-7.820313-7.820313zm0 0"/><path d="m478.742188 80.859375c-4.320313 0-7.820313 3.503906-7.820313 7.820313v133.976562c0 4.320312 3.5 7.820312 7.820313 7.820312 4.320312 0 7.820312-3.5 7.820312-7.820312v-133.976562c0-4.316407-3.5-7.820313-7.820312-7.820313zm0 0"/><path d="m440.554688 60.996094c-4.316407 0-7.820313 3.5-7.820313 7.820312v173.703125c0 4.320313 3.503906 7.820313 7.820313 7.820313 4.320312 0 7.820312-3.5 7.820312-7.820313v-173.703125c0-4.320312-3.5-7.820312-7.820312-7.820312zm0 0"/><path d="m402.226562 60.996094c-4.320312 0-7.820312 3.5-7.820312 7.820312v173.703125c0 4.320313 3.5 7.820313 7.820312 7.820313 4.320313 0 7.820313-3.5 7.820313-7.820313v-173.703125c0-4.320312-3.5-7.820312-7.820313-7.820312zm0 0"/></g><path d="m501.949219 271.140625h-140.488281l-2.472657 3.667969c-1.9375 2.902344-1.9375 7.070312 0 9.96875l17.507813 26.058594h125.453125c5.546875 0 10.050781-4.503907 10.050781-10.050782v-39.695312c0 5.546875-4.503906 10.050781-10.050781 10.050781zm0 0" fill="#1ab975"/></svg>